<?xml version="1.0" encoding="UTF-8" standalone="no"?>
<svg
   version="1.1"
   width="297.0022mm"
   height="210.0072mm"
   viewBox="0.0000 0.0000 297.0022 210.0072"
   id="svg217"
   sodipodi:docname="oscill_800Hz-B_Cu.svg"
   inkscape:version="1.3.2 (091e20e, 2023-11-25)"
   xmlns:inkscape="http://www.inkscape.org/namespaces/inkscape"
   xmlns:sodipodi="http://sodipodi.sourceforge.net/DTD/sodipodi-0.dtd"
   xmlns="http://www.w3.org/2000/svg"
   xmlns:svg="http://www.w3.org/2000/svg"
   xmlns:rdf="http://www.w3.org/1999/02/22-rdf-syntax-ns#"
   xmlns:cc="http://creativecommons.org/ns#"
   xmlns:dc="http://purl.org/dc/elements/1.1/">
  <defs
     id="defs217">
    <clipPath
       clipPathUnits="userSpaceOnUse"
       id="clipPath218">
      <rect
         style="fill:#666666;stroke:#ffffff;stroke-width:0.264583"
         id="rect219"
         width="40.264572"
         height="34.336338"
         x="124.0661"
         y="92.006203" />
    </clipPath>
  </defs>
  <sodipodi:namedview
     id="namedview217"
     pagecolor="#505050"
     bordercolor="#eeeeee"
     borderopacity="1"
     inkscape:showpageshadow="0"
     inkscape:pageopacity="0"
     inkscape:pagecheckerboard="0"
     inkscape:deskcolor="#505050"
     inkscape:document-units="mm"
     inkscape:zoom="5.5788809"
     inkscape:cx="546.25651"
     inkscape:cy="408.95298"
     inkscape:window-width="1920"
     inkscape:window-height="1080"
     inkscape:window-x="0"
     inkscape:window-y="0"
     inkscape:window-maximized="0"
     inkscape:current-layer="svg217" />
  <title
     id="title1">SVG Image created as oscill_800Hz-B_Cu.svg date 2024/11/15 21:10:55 </title>
  <desc
     id="desc1">Image generated by PCBNEW </desc>
  <g
     style="fill:#000000; fill-opacity:1.0000;stroke:#000000; stroke-opacity:1.0000; stroke-linecap:round; stroke-linejoin:round;"
     transform="translate(0 0) scale(1 1)"
     id="g1" />
  <g
     id="g218"
     clip-path="url(#clipPath218)"
     inkscape:export-filename="g218.png"
     inkscape:export-xdpi="600"
     inkscape:export-ydpi="600">
    <g
       style="fill:#000000; fill-opacity:1.0000;  stroke:#000000; stroke-width:0.0212; stroke-opacity:1;  stroke-linecap:round; stroke-linejoin:round;"
       id="g2">
      <rect
         x="118.477200"
         y="86.415000"
         width="52.783810"
         height="45.823250"
         rx="0.000000"
         id="rect1" />
    </g>
    <g
       style="fill:none;  stroke:#FFFFFF; stroke-width:0.3000; stroke-opacity:1;  stroke-linecap:round; stroke-linejoin:round;"
       id="g109">
      <text
         x="128.2022"
         y="125.0000"
         textLength="7.6714"
         font-size="2.0000"
         lengthAdjust="spacingAndGlyphs"
         text-anchor="start"
         opacity="0"
         stroke-opacity="0"
         id="text2">800Hz</text>
      <g
         class="stroked-text"
         id="g78">
        <desc
           id="desc2">800Hz</desc>
        <path
           d="M128.9710 123.9437 L128.8281 123.8723 "
           id="path2" />
        <path
           d="M128.8281 123.8723 L128.7567 123.8008 "
           id="path3" />
        <path
           d="M128.7567 123.8008 L128.6853 123.6580 "
           id="path4" />
        <path
           d="M128.6853 123.6580 L128.6853 123.5865 "
           id="path5" />
        <path
           d="M128.6853 123.5865 L128.7567 123.4437 "
           id="path6" />
        <path
           d="M128.7567 123.4437 L128.8281 123.3723 "
           id="path7" />
        <path
           d="M128.8281 123.3723 L128.9710 123.3008 "
           id="path8" />
        <path
           d="M128.9710 123.3008 L129.2567 123.3008 "
           id="path9" />
        <path
           d="M129.2567 123.3008 L129.3996 123.3723 "
           id="path10" />
        <path
           d="M129.3996 123.3723 L129.4710 123.4437 "
           id="path11" />
        <path
           d="M129.4710 123.4437 L129.5424 123.5865 "
           id="path12" />
        <path
           d="M129.5424 123.5865 L129.5424 123.6580 "
           id="path13" />
        <path
           d="M129.5424 123.6580 L129.4710 123.8008 "
           id="path14" />
        <path
           d="M129.4710 123.8008 L129.3996 123.8723 "
           id="path15" />
        <path
           d="M129.3996 123.8723 L129.2567 123.9437 "
           id="path16" />
        <path
           d="M129.2567 123.9437 L128.9710 123.9437 "
           id="path17" />
        <path
           d="M128.9710 123.9437 L128.8281 124.0151 "
           id="path18" />
        <path
           d="M128.8281 124.0151 L128.7567 124.0865 "
           id="path19" />
        <path
           d="M128.7567 124.0865 L128.6853 124.2294 "
           id="path20" />
        <path
           d="M128.6853 124.2294 L128.6853 124.5151 "
           id="path21" />
        <path
           d="M128.6853 124.5151 L128.7567 124.6580 "
           id="path22" />
        <path
           d="M128.7567 124.6580 L128.8281 124.7294 "
           id="path23" />
        <path
           d="M128.8281 124.7294 L128.9710 124.8008 "
           id="path24" />
        <path
           d="M128.9710 124.8008 L129.2567 124.8008 "
           id="path25" />
        <path
           d="M129.2567 124.8008 L129.3996 124.7294 "
           id="path26" />
        <path
           d="M129.3996 124.7294 L129.4710 124.6580 "
           id="path27" />
        <path
           d="M129.4710 124.6580 L129.5424 124.5151 "
           id="path28" />
        <path
           d="M129.5424 124.5151 L129.5424 124.2294 "
           id="path29" />
        <path
           d="M129.5424 124.2294 L129.4710 124.0865 "
           id="path30" />
        <path
           d="M129.4710 124.0865 L129.3996 124.0151 "
           id="path31" />
        <path
           d="M129.3996 124.0151 L129.2567 123.9437 "
           id="path32" />
        <path
           d="M130.4710 123.3008 L130.6139 123.3008 "
           id="path33" />
        <path
           d="M130.6139 123.3008 L130.7567 123.3723 "
           id="path34" />
        <path
           d="M130.7567 123.3723 L130.8281 123.4437 "
           id="path35" />
        <path
           d="M130.8281 123.4437 L130.8996 123.5865 "
           id="path36" />
        <path
           d="M130.8996 123.5865 L130.9710 123.8723 "
           id="path37" />
        <path
           d="M130.9710 123.8723 L130.9710 124.2294 "
           id="path38" />
        <path
           d="M130.9710 124.2294 L130.8996 124.5151 "
           id="path39" />
        <path
           d="M130.8996 124.5151 L130.8281 124.6580 "
           id="path40" />
        <path
           d="M130.8281 124.6580 L130.7567 124.7294 "
           id="path41" />
        <path
           d="M130.7567 124.7294 L130.6139 124.8008 "
           id="path42" />
        <path
           d="M130.6139 124.8008 L130.4710 124.8008 "
           id="path43" />
        <path
           d="M130.4710 124.8008 L130.3281 124.7294 "
           id="path44" />
        <path
           d="M130.3281 124.7294 L130.2567 124.6580 "
           id="path45" />
        <path
           d="M130.2567 124.6580 L130.1853 124.5151 "
           id="path46" />
        <path
           d="M130.1853 124.5151 L130.1139 124.2294 "
           id="path47" />
        <path
           d="M130.1139 124.2294 L130.1139 123.8723 "
           id="path48" />
        <path
           d="M130.1139 123.8723 L130.1853 123.5865 "
           id="path49" />
        <path
           d="M130.1853 123.5865 L130.2567 123.4437 "
           id="path50" />
        <path
           d="M130.2567 123.4437 L130.3281 123.3723 "
           id="path51" />
        <path
           d="M130.3281 123.3723 L130.4710 123.3008 "
           id="path52" />
        <path
           d="M131.8996 123.3008 L132.0424 123.3008 "
           id="path53" />
        <path
           d="M132.0424 123.3008 L132.1853 123.3723 "
           id="path54" />
        <path
           d="M132.1853 123.3723 L132.2567 123.4437 "
           id="path55" />
        <path
           d="M132.2567 123.4437 L132.3281 123.5865 "
           id="path56" />
        <path
           d="M132.3281 123.5865 L132.3996 123.8723 "
           id="path57" />
        <path
           d="M132.3996 123.8723 L132.3996 124.2294 "
           id="path58" />
        <path
           d="M132.3996 124.2294 L132.3281 124.5151 "
           id="path59" />
        <path
           d="M132.3281 124.5151 L132.2567 124.6580 "
           id="path60" />
        <path
           d="M132.2567 124.6580 L132.1853 124.7294 "
           id="path61" />
        <path
           d="M132.1853 124.7294 L132.0424 124.8008 "
           id="path62" />
        <path
           d="M132.0424 124.8008 L131.8996 124.8008 "
           id="path63" />
        <path
           d="M131.8996 124.8008 L131.7567 124.7294 "
           id="path64" />
        <path
           d="M131.7567 124.7294 L131.6853 124.6580 "
           id="path65" />
        <path
           d="M131.6853 124.6580 L131.6139 124.5151 "
           id="path66" />
        <path
           d="M131.6139 124.5151 L131.5424 124.2294 "
           id="path67" />
        <path
           d="M131.5424 124.2294 L131.5424 123.8723 "
           id="path68" />
        <path
           d="M131.5424 123.8723 L131.6139 123.5865 "
           id="path69" />
        <path
           d="M131.6139 123.5865 L131.6853 123.4437 "
           id="path70" />
        <path
           d="M131.6853 123.4437 L131.7567 123.3723 "
           id="path71" />
        <path
           d="M131.7567 123.3723 L131.8996 123.3008 "
           id="path72" />
        <path
           d="M133.0424 124.8008 L133.0424 123.3008 "
           id="path73" />
        <path
           d="M133.0424 124.0151 L133.8996 124.0151 "
           id="path74" />
        <path
           d="M133.8996 124.8008 L133.8996 123.3008 "
           id="path75" />
        <path
           d="M134.4710 123.8008 L135.2567 123.8008 "
           id="path76" />
        <path
           d="M135.2567 123.8008 L134.4710 124.8008 "
           id="path77" />
        <path
           d="M134.4710 124.8008 L135.2567 124.8008 "
           id="path78" />
      </g>
      <text
         x="161.8036"
         y="117.6077"
         textLength="2.4571"
         font-size="2.0000"
         lengthAdjust="spacingAndGlyphs"
         text-anchor="start"
         opacity="0"
         stroke-opacity="0"
         id="text78">+</text>
      <g
         class="stroked-text"
         id="g80">
        <desc
           id="desc78">+</desc>
        <path
           d="M162.3581 116.8371 L163.5009 116.8371 "
           id="path79" />
        <path
           d="M162.9295 117.4086 L162.9295 116.2657 "
           id="path80" />
      </g>
      <g
         transform="rotate(270.000000 163.8661 105.2324)"
         id="g81">
        <text
           x="163.8661"
           y="105.2324"
           textLength="4.8857"
           font-size="2.0000"
           lengthAdjust="spacingAndGlyphs"
           text-anchor="start"
           opacity="0"
           stroke-opacity="0"
           id="text80">OUT</text>
      </g>
      <g
         class="stroked-text"
         id="g107">
        <desc
           id="desc81">OUT</desc>
        <path
           d="M162.1670 104.3922 L162.1670 104.1064 "
           id="path81" />
        <path
           d="M162.1670 104.1064 L162.2384 103.9636 "
           id="path82" />
        <path
           d="M162.2384 103.9636 L162.3812 103.8207 "
           id="path83" />
        <path
           d="M162.3812 103.8207 L162.6670 103.7493 "
           id="path84" />
        <path
           d="M162.6670 103.7493 L163.1670 103.7493 "
           id="path85" />
        <path
           d="M163.1670 103.7493 L163.4527 103.8207 "
           id="path86" />
        <path
           d="M163.4527 103.8207 L163.5955 103.9636 "
           id="path87" />
        <path
           d="M163.5955 103.9636 L163.6670 104.1064 "
           id="path88" />
        <path
           d="M163.6670 104.1064 L163.6670 104.3922 "
           id="path89" />
        <path
           d="M163.6670 104.3922 L163.5955 104.5350 "
           id="path90" />
        <path
           d="M163.5955 104.5350 L163.4527 104.6779 "
           id="path91" />
        <path
           d="M163.4527 104.6779 L163.1670 104.7493 "
           id="path92" />
        <path
           d="M163.1670 104.7493 L162.6670 104.7493 "
           id="path93" />
        <path
           d="M162.6670 104.7493 L162.3812 104.6779 "
           id="path94" />
        <path
           d="M162.3812 104.6779 L162.2384 104.5350 "
           id="path95" />
        <path
           d="M162.2384 104.5350 L162.1670 104.3922 "
           id="path96" />
        <path
           d="M162.1670 103.1064 L163.3812 103.1064 "
           id="path97" />
        <path
           d="M163.3812 103.1064 L163.5241 103.0350 "
           id="path98" />
        <path
           d="M163.5241 103.0350 L163.5955 102.9636 "
           id="path99" />
        <path
           d="M163.5955 102.9636 L163.6670 102.8207 "
           id="path100" />
        <path
           d="M163.6670 102.8207 L163.6670 102.5350 "
           id="path101" />
        <path
           d="M163.6670 102.5350 L163.5955 102.3922 "
           id="path102" />
        <path
           d="M163.5955 102.3922 L163.5241 102.3207 "
           id="path103" />
        <path
           d="M163.5241 102.3207 L163.3812 102.2493 "
           id="path104" />
        <path
           d="M163.3812 102.2493 L162.1670 102.2493 "
           id="path105" />
        <path
           d="M162.1670 101.7493 L162.1670 100.8922 "
           id="path106" />
        <path
           d="M163.6670 101.3207 L162.1670 101.3207 "
           id="path107" />
      </g>
      <text
         x="161.7119"
         y="115.1327"
         textLength="2.4571"
         font-size="2.0000"
         lengthAdjust="spacingAndGlyphs"
         text-anchor="start"
         opacity="0"
         stroke-opacity="0"
         id="text107">-</text>
      <g
         class="stroked-text"
         id="g108">
        <desc
           id="desc107">-</desc>
        <path
           d="M162.2664 114.3621 L163.4093 114.3621 "
           id="path108" />
      </g>
    </g>
    <g
       style="fill:#FFFFFF; fill-opacity:1.0000; stroke:none;"
       id="g110">
      <circle
         cx="161.1122"
         cy="123.1900"
         r="2.2000"
         id="circle109" />
      <path
         style="fill:#FFFFFF; fill-opacity:1.0000; stroke:none;fill-rule:evenodd;"
         d="M 135.5573,117.2500 135.5573,115.2500 133.8573,115.2500 133.8573,117.2500 Z"
         id="path109" />
    </g>
    <g
       style="fill:none;  stroke:#FFFFFF; stroke-width:1.7000; stroke-opacity:1;  stroke-linecap:round; stroke-linejoin:round;"
       id="g111">
      <path
         d="M132.2073 116.1000 L132.2073 116.4000 "
         id="path110" />
    </g>
    <g
       style="fill:#FFFFFF; fill-opacity:1.0000; stroke:none;"
       id="g112">
      <circle
         cx="144.6022"
         cy="121.9200"
         r="1.0000"
         id="circle111" />
    </g>
    <g
       style="fill:#FFFFFF; fill-opacity:1.0000; stroke:none;"
       id="g113">
      <circle
         cx="144.6022"
         cy="111.7600"
         r="1.0000"
         id="circle112" />
      <path
         style="fill:#FFFFFF; fill-opacity:1.0000; stroke:none;fill-rule:evenodd;"
         d="M 160.6922,115.1500 160.6922,113.4500 158.9922,113.4500 158.9922,115.1500 Z"
         id="path112" />
      <circle
         cx="159.8422"
         cy="116.8400"
         r="0.8500"
         id="circle113" />
    </g>
    <g
       style="fill:none;  stroke:#FFFFFF; stroke-width:1.6000; stroke-opacity:1;  stroke-linecap:round; stroke-linejoin:round;"
       id="g115">
      <path
         d="M147.3022 101.6000 L147.7022 101.6000 "
         id="path113" />
      <path
         d="M147.3022 104.1400 L147.7022 104.1400 "
         id="path114" />
      <path
         d="M147.3022 106.6800 L147.7022 106.6800 "
         id="path115" />
    </g>
    <g
       style="fill:#FFFFFF; fill-opacity:1.0000; stroke:none;"
       id="g116">
      <circle
         cx="126.7522"
         cy="101.5600"
         r="1.0000"
         id="circle115" />
    </g>
    <g
       style="fill:#FFFFFF; fill-opacity:1.0000; stroke:none;"
       id="g117">
      <circle
         cx="126.7522"
         cy="96.5600"
         r="1.0000"
         id="circle116" />
      <path
         style="fill:#FFFFFF; fill-opacity:1.0000; stroke:none;fill-rule:evenodd;"
         d="M 158.9922,103.2900 158.9922,104.9900 160.6922,104.9900 160.6922,103.2900 Z"
         id="path116" />
    </g>
    <g
       style="fill:#FFFFFF; fill-opacity:1.0000; stroke:none;"
       id="g118">
      <circle
         cx="159.8422"
         cy="101.6000"
         r="0.8500"
         id="circle117" />
      <circle
         cx="154.7622"
         cy="106.6800"
         r="1.0000"
         id="circle118" />
    </g>
    <g
       style="fill:#FFFFFF; fill-opacity:1.0000; stroke:none;"
       id="g119">
      <circle
         cx="154.7622"
         cy="101.6800"
         r="1.0000"
         id="circle119" />
    </g>
    <g
       style="fill:#FFFFFF; fill-opacity:1.0000; stroke:none;"
       id="g120">
      <circle
         cx="154.7622"
         cy="121.9200"
         r="1.0000"
         id="circle120" />
    </g>
    <g
       style="fill:#FFFFFF; fill-opacity:1.0000; stroke:none;"
       id="g122">
      <circle
         cx="154.7622"
         cy="111.7600"
         r="1.0000"
         id="circle121" />
      <circle
         cx="139.5222"
         cy="111.7600"
         r="1.0000"
         id="circle122" />
    </g>
    <g
       style="fill:#FFFFFF; fill-opacity:1.0000; stroke:none;"
       id="g124">
      <circle
         cx="139.5222"
         cy="121.9200"
         r="1.0000"
         id="circle123" />
      <circle
         cx="144.6022"
         cy="96.5200"
         r="1.0000"
         id="circle124" />
    </g>
    <g
       style="fill:#FFFFFF; fill-opacity:1.0000; stroke:none;"
       id="g126">
      <circle
         cx="154.7622"
         cy="96.5200"
         r="1.0000"
         id="circle125" />
      <circle
         cx="126.7522"
         cy="106.6700"
         r="1.0000"
         id="circle126" />
    </g>
    <g
       style="fill:#FFFFFF; fill-opacity:1.0000; stroke:none;"
       id="g128">
      <circle
         cx="126.7522"
         cy="116.8300"
         r="1.0000"
         id="circle127" />
      <circle
         cx="140.7522"
         cy="93.9800"
         r="1.0000"
         id="circle128" />
    </g>
    <g
       style="fill:#FFFFFF; fill-opacity:1.0000; stroke:none;"
       id="g130">
      <circle
         cx="140.7522"
         cy="104.1400"
         r="1.0000"
         id="circle129" />
      <circle
         cx="161.1122"
         cy="95.2500"
         r="2.2000"
         id="circle130" />
    </g>
    <g
       style="fill:#FFFFFF; fill-opacity:1.0000; stroke:none;"
       id="g131">
      <circle
         cx="131.5022"
         cy="94.4200"
         r="1.0000"
         id="circle131" />
    </g>
    <g
       style="fill:#FFFFFF; fill-opacity:1.0000; stroke:none;"
       id="g133">
      <circle
         cx="131.5022"
         cy="104.5800"
         r="1.0000"
         id="circle132" />
      <circle
         cx="137.2522"
         cy="108.0000"
         r="1.0000"
         id="circle133" />
    </g>
    <g
       style="fill:#FFFFFF; fill-opacity:1.0000; stroke:none;"
       id="g134">
      <circle
         cx="142.2522"
         cy="108.0000"
         r="1.0000"
         id="circle134" />
    </g>
    <g
       style="fill:#FFFFFF; fill-opacity:1.0000; stroke:none;"
       id="g135">
      <circle
         cx="136.0022"
         cy="101.5000"
         r="1.0000"
         id="circle135" />
    </g>
    <g
       style="fill:#FFFFFF; fill-opacity:1.0000; stroke:none;"
       id="g136">
      <circle
         cx="136.0022"
         cy="96.5000"
         r="1.0000"
         id="circle136" />
    </g>
    <g
       style="fill:#FFFFFF; fill-opacity:1.0000; stroke:none;"
       id="g137">
      <circle
         cx="149.6822"
         cy="111.7600"
         r="1.0000"
         id="circle137" />
    </g>
    <g
       style="fill:#FFFFFF; fill-opacity:1.0000; stroke:none;"
       id="g138">
      <circle
         cx="149.6822"
         cy="121.9200"
         r="1.0000"
         id="circle138" />
    </g>
    <g
       style="fill:none;  stroke:#FFFFFF; stroke-width:1.2700; stroke-opacity:1;  stroke-linecap:round; stroke-linejoin:round;"
       id="g182">
      <path
         d="M154.7622 121.9200 L154.7622 118.6000 "
         id="path138" />
      <path
         d="M154.7622 118.6000 L144.6022 118.6000 "
         id="path139" />
      <path
         d="M144.6022 118.6000 L144.6022 121.9200 "
         id="path140" />
      <path
         d="M126.7522 101.5600 L126.7522 109.1500 "
         id="path141" />
      <path
         d="M126.8222 109.2200 L136.0322 109.2200 "
         id="path142" />
      <path
         d="M136.0322 109.2200 L137.2522 108.0000 "
         id="path143" />
      <path
         d="M126.7522 109.1500 L126.8222 109.2200 "
         id="path144" />
      <path
         d="M139.5222 121.9200 L136.9822 121.9200 "
         id="path145" />
      <path
         d="M136.9822 121.9200 L134.7073 119.6451 "
         id="path146" />
      <path
         d="M134.7073 119.6451 L134.7073 116.2500 "
         id="path147" />
      <path
         d="M131.5022 94.4200 L128.8922 94.4200 "
         id="path148" />
      <path
         d="M128.8922 94.4200 L126.7522 96.5600 "
         id="path149" />
      <path
         d="M136.0022 101.5000 L134.5022 101.5000 "
         id="path150" />
      <path
         d="M134.5022 101.5000 L131.5022 98.5000 "
         id="path151" />
      <path
         d="M131.5022 98.5000 L131.5022 94.4200 "
         id="path152" />
      <path
         d="M152.2222 106.6800 L152.2222 99.0600 "
         id="path153" />
      <path
         d="M152.2222 99.0600 L147.1422 93.9800 "
         id="path154" />
      <path
         d="M147.1422 93.9800 L137.0222 93.9800 "
         id="path155" />
      <path
         d="M137.0222 93.9800 L136.0022 95.0000 "
         id="path156" />
      <path
         d="M136.0022 95.0000 L136.0022 96.5000 "
         id="path157" />
      <path
         d="M144.6022 111.7600 L142.2522 109.4100 "
         id="path158" />
      <path
         d="M142.2522 109.4100 L142.2522 108.0000 "
         id="path159" />
      <path
         d="M142.0622 108.1900 L142.2522 108.0000 "
         id="path160" />
      <path
         d="M147.5022 101.6000 L144.6022 101.6000 "
         id="path161" />
      <path
         d="M143.7522 106.5000 L142.2522 108.0000 "
         id="path162" />
      <path
         d="M144.6022 101.6000 L143.7522 102.4500 "
         id="path163" />
      <path
         d="M143.7522 102.4500 L143.7522 106.5000 "
         id="path164" />
      <path
         d="M152.2222 106.6800 L149.6822 104.1400 "
         id="path165" />
      <path
         d="M152.2222 111.7600 L152.2222 106.6800 "
         id="path166" />
      <path
         d="M154.7622 111.7600 L152.2222 111.7600 "
         id="path167" />
      <path
         d="M149.6822 104.1400 L147.5022 104.1400 "
         id="path168" />
      <path
         d="M147.5022 101.6000 L147.5022 99.4200 "
         id="path169" />
      <path
         d="M147.5022 99.4200 L144.6022 96.5200 "
         id="path170" />
      <path
         d="M154.7622 101.6800 L154.7622 96.5200 "
         id="path171" />
      <path
         d="M159.8422 101.6000 L154.8422 101.6000 "
         id="path172" />
      <path
         d="M154.8422 101.6000 L154.7622 101.6800 "
         id="path173" />
      <path
         d="M156.0322 121.9200 L154.7622 121.9200 "
         id="path174" />
      <path
         d="M159.8422 116.8400 L159.8422 118.1100 "
         id="path175" />
      <path
         d="M159.8422 118.1100 L156.0322 121.9200 "
         id="path176" />
      <path
         d="M149.6822 111.7600 L147.1422 114.3000 "
         id="path177" />
      <path
         d="M149.6822 111.7600 L149.6822 108.8600 "
         id="path178" />
      <path
         d="M147.1422 114.3000 L142.0622 114.3000 "
         id="path179" />
      <path
         d="M149.6822 108.8600 L147.5022 106.6800 "
         id="path180" />
      <path
         d="M142.0622 114.3000 L139.5222 111.7600 "
         id="path181" />
      <path
         style="fill:#FFFFFF; fill-opacity:1.0000; stroke:none;fill-rule:evenodd;"
         d="M 124.1266,91.9700 124.0596,91.9898 124.0139,92.0426 124.0027,92.0940 124.0027,126.4050 124.0224,126.4721 124.0752,126.5178 124.1268,126.5290 164.2978,126.4999 164.3648,126.4802 164.4105,126.4274 164.4217,126.3759 164.4217,118.4881 164.4020,118.4210 164.3492,118.3753 164.2977,118.3641 161.3591,118.3641 161.2921,118.3838 161.2463,118.4366 161.2412,118.4498 161.1725,118.6610 161.1725,118.6610 161.0700,118.8624 160.9371,119.0452 160.9371,119.0452 160.9371,119.0452 159.7225,120.2598 159.6890,120.3211 159.6940,120.3908 159.7359,120.4468 159.8013,120.4712 159.8658,120.4583 159.9217,120.4302 159.9217,120.4302 160.2502,120.3107 160.2502,120.3107 160.5903,120.2301 160.6337,120.2250 160.9374,120.1895 161.2870,120.1895 161.5907,120.2250 161.6341,120.2301 161.6341,120.2301 161.9742,120.3107 161.9742,120.3107 162.3027,120.4302 162.3027,120.4302 162.6150,120.5871 162.9070,120.7791 162.9070,120.7792 163.1748,121.0038 163.1748,121.0038 163.4146,121.2580 163.4146,121.2580 163.6233,121.5384 163.7981,121.8411 163.7981,121.8411 163.9365,122.1620 164.0368,122.4969 164.0368,122.4969 164.0975,122.8411 164.0975,122.8411 164.1178,123.1900 164.1178,123.1900 164.0975,123.5389 164.0975,123.5389 164.0368,123.8831 164.0368,123.8831 163.9365,124.2180 163.7981,124.5389 163.7981,124.5389 163.6233,124.8416 163.4146,125.1219 163.4146,125.1220 163.2907,125.2533 163.1748,125.3762 162.9983,125.5243 162.9070,125.6008 162.9070,125.6009 162.6150,125.7929 162.6150,125.7929 162.3027,125.9498 161.9742,126.0693 161.6341,126.1499 161.2870,126.1905 161.2870,126.1905 160.9374,126.1905 160.9374,126.1905 160.5903,126.1499 160.2502,126.0693 159.9217,125.9498 159.6094,125.7929 159.3174,125.6008 159.0496,125.3762 158.8098,125.1220 158.6011,124.8416 158.4263,124.5389 158.2879,124.2180 158.1876,123.8831 158.1269,123.5389 158.1096,123.2419 158.1066,123.1900 158.1066,123.1900 158.1106,123.1208 158.1269,122.8411 158.1512,122.7034 158.1876,122.4969 158.1876,122.4969 158.2010,122.4522 158.2879,122.1620 158.3859,121.9347 158.3944,121.8654 158.3640,121.8024 158.3045,121.7659 158.2346,121.7674 158.1844,121.7979 157.1303,122.8520 157.1302,122.8521 157.1271,122.8552 157.1271,122.8552 156.9674,123.0149 156.7846,123.1477 156.5832,123.2503 156.5305,123.2675 156.3683,123.3202 156.1452,123.3555 156.1452,123.3555 155.9141,123.3555 155.9141,123.3555 155.8912,123.3555 155.8241,123.3752 155.8213,123.3770 155.7093,123.4534 155.6650,123.4837 155.4218,123.6007 155.1640,123.6803 155.1640,123.6803 155.1640,123.6803 154.8971,123.7205 154.8971,123.7205 154.8971,123.7205 154.8971,123.7205 154.6273,123.7205 154.6273,123.7205 154.6273,123.7205 154.3604,123.6803 154.3604,123.6803 154.3604,123.6803 154.1026,123.6007 153.8594,123.4837 153.6365,123.3316 153.4386,123.1481 153.2704,122.9371 153.1355,122.7034 153.0369,122.4522 152.9768,122.1891 152.9567,121.9200 152.9768,121.6509 153.0369,121.3878 153.1355,121.1366 153.2704,120.9029 153.2996,120.8662 153.3261,120.8015 153.3267,120.7889 153.3267,120.1595 153.3070,120.0925 153.2542,120.0467 153.2027,120.0355 146.1617,120.0355 146.0947,120.0552 146.0489,120.1080 146.0377,120.1595 146.0377,120.7889 146.0574,120.8559 146.0648,120.8662 146.0940,120.9029 146.2289,121.1366 146.2289,121.1366 146.3275,121.3878 146.3275,121.3878 146.3876,121.6509 146.4077,121.9200 146.4077,121.9200 146.3876,122.1891 146.3275,122.4522 146.3275,122.4522 146.2289,122.7034 146.0940,122.9371 145.9581,123.1075 145.9258,123.1481 145.8156,123.2503 145.7279,123.3316 145.5050,123.4837 145.2618,123.6007 145.0040,123.6803 145.0040,123.6803 145.0040,123.6803 144.7371,123.7205 144.7371,123.7205 144.7371,123.7205 144.7371,123.7205 144.4673,123.7205 144.4673,123.7205 144.4673,123.7205 144.2004,123.6803 144.2004,123.6803 144.2004,123.6803 143.9426,123.6007 143.6994,123.4837 143.4765,123.3316 143.2786,123.1481 143.1104,122.9371 142.9755,122.7034 142.8769,122.4522 142.8168,122.1891 142.7967,121.9200 142.7967,121.9200 141.3277,121.9200 141.3277,121.9200 141.3076,122.1891 141.2475,122.4522 141.2475,122.4522 141.1489,122.7034 141.0140,122.9371 140.8781,123.1075 140.8458,123.1481 140.7356,123.2503 140.6479,123.3316 140.4250,123.4837 140.1818,123.6007 139.9240,123.6803 139.9240,123.6803 139.9240,123.6803 139.6571,123.7205 139.6571,123.7205 139.6571,123.7205 139.6571,123.7205 139.3873,123.7205 139.3873,123.7205 139.3873,123.7205 139.1204,123.6803 139.1204,123.6803 139.1204,123.6803 138.8626,123.6007 138.6194,123.4837 138.5327,123.4245 138.4631,123.3770 138.3966,123.3555 138.3932,123.3555 136.8692,123.3555 136.8692,123.3555 136.6461,123.3202 136.4312,123.2503 136.4212,123.2453 136.3950,123.2319 136.3263,123.2190 136.2615,123.2453 136.2213,123.3024 136.2147,123.3424 136.2147,125.7588 127.7281,125.7588 127.7281,122.3436 135.0763,122.3436 135.1434,122.3239 135.1891,122.2711 135.1991,122.2020 135.1701,122.1384 135.1640,122.1319 134.4199,121.3878 133.6124,120.5803 133.4796,120.3975 133.3770,120.1962 133.3072,119.9813 133.2991,119.9303 133.2945,119.9016 133.2718,119.7581 133.2718,117.8479 133.2521,117.7809 133.2355,117.7603 133.2275,117.7523 133.1315,117.5995 133.0719,117.4293 133.0568,117.2950 133.0568,115.2050 133.0719,115.0707 133.1315,114.9005 133.2275,114.7477 133.3551,114.6202 133.5078,114.5242 133.6781,114.4646 133.6781,114.4646 133.8124,114.4495 133.8124,114.4495 135.6023,114.4495 135.6023,114.4495 135.7366,114.4646 135.7366,114.4646 135.9068,114.5242 136.0596,114.6202 136.1871,114.7477 136.2831,114.9005 136.3427,115.0707 136.3427,115.0707 136.3578,115.2050 136.3578,117.2950 136.3427,117.4292 136.3427,117.4293 136.2831,117.5995 136.1871,117.7523 136.1791,117.7603 136.1456,117.8216 136.1428,117.8479 136.1428,118.9991 136.1625,119.0662 136.1791,119.0868 137.5405,120.4482 137.6018,120.4817 137.6282,120.4845 138.3932,120.4845 138.4603,120.4648 138.4631,120.4630 138.6194,120.3563 138.6194,120.3563 138.8626,120.2393 138.8626,120.2393 139.1204,120.1597 139.1204,120.1597 139.3873,120.1195 139.3873,120.1195 139.6571,120.1195 139.6571,120.1195 139.9240,120.1597 139.9240,120.1597 140.1818,120.2393 140.4250,120.3563 140.6479,120.5084 140.8458,120.6919 141.0140,120.9029 141.1489,121.1366 141.1489,121.1366 141.2475,121.3878 141.2475,121.3878 141.3076,121.6509 141.3277,121.9200 142.7967,121.9200 142.8168,121.6509 142.8769,121.3878 142.9755,121.1366 143.1104,120.9029 143.1396,120.8662 143.1661,120.8015 143.1667,120.7889 143.1667,118.4870 143.2020,118.2639 143.2719,118.0490 143.2719,118.0490 143.3241,117.9464 143.3744,117.8476 143.5073,117.6648 143.6670,117.5051 143.8498,117.3722 143.8903,117.3516 144.0512,117.2697 144.0512,117.2697 144.2661,117.1998 144.3776,117.1822 144.4892,117.1645 154.6492,117.1645 154.8752,117.1645 154.9496,117.1763 155.0983,117.1998 155.3132,117.2697 155.3132,117.2697 155.5146,117.3722 155.5930,117.4293 155.6974,117.5051 155.6974,117.5051 155.6974,117.5051 155.8571,117.6648 155.8571,117.6648 155.8571,117.6648 155.9142,117.7433 155.9899,117.8476 156.0925,118.0490 156.0925,118.0490 156.1624,118.2639 156.1977,118.4870 156.1977,119.4250 156.2174,119.4921 156.2702,119.5378 156.3393,119.5478 156.4029,119.5187 156.4094,119.5127 158.2977,117.6243 158.3312,117.5630 158.3262,117.4933 158.3247,117.4893 158.2676,117.3516 158.2070,117.0990 158.1866,116.8400 158.2070,116.5810 158.2676,116.3284 158.3670,116.0884 158.5028,115.8669 158.6715,115.6693 158.8691,115.5006 159.0906,115.3648 159.0906,115.3648 159.0906,115.3648 159.2566,115.2961 159.3306,115.2654 159.3306,115.2654 159.4683,115.2324 159.5832,115.2048 159.5832,115.2048 159.5832,115.2048 159.8422,115.1844 160.1012,115.2048 160.3538,115.2654 160.5938,115.3648 160.8153,115.5006 161.0129,115.6693 161.1843,115.8700 161.2428,115.9082 161.3127,115.9087 161.3717,115.8713 161.4012,115.8080 161.4026,115.7895 161.4026,115.4416 161.3829,115.3745 161.3301,115.3288 161.3199,115.3266 161.3109,115.3176 161.3109,113.4066 164.2977,113.4066 164.3647,113.3869 164.4105,113.3341 164.4217,113.2826 164.4217,105.8315 164.4020,105.7645 164.3492,105.7187 164.2977,105.7075 161.2097,105.7075 161.2097,102.8715 161.1900,102.8045 161.1372,102.7588 161.0681,102.7488 161.0052,102.7773 160.8153,102.9394 160.5938,103.0752 160.5938,103.0752 160.5938,103.0752 160.5403,103.0973 160.3538,103.1746 160.1012,103.2352 159.8422,103.2556 159.5832,103.2352 159.3306,103.1746 159.0906,103.0752 159.0557,103.0538 158.9909,103.0355 155.9971,103.0355 155.9301,103.0552 155.9128,103.0686 155.8879,103.0916 155.8879,103.0916 155.8879,103.0916 155.6650,103.2437 155.6650,103.2437 155.6650,103.2437 155.6402,103.2556 155.4218,103.3607 155.1640,103.4403 155.1640,103.4403 155.1640,103.4403 154.8971,103.4805 154.8971,103.4805 154.8971,103.4805 154.8971,103.4805 154.6273,103.4805 154.6273,103.4805 154.6273,103.4805 154.3604,103.4403 154.3604,103.4403 154.3604,103.4403 154.1026,103.3607 153.8940,103.2603 153.8594,103.2437 153.8594,103.2437 153.8594,103.2437 153.8516,103.2383 153.7851,103.2168 153.7175,103.2346 153.6703,103.2862 153.6577,103.3407 153.6577,110.0993 153.6774,110.1663 153.7302,110.2121 153.7993,110.2220 153.8515,110.2017 153.8594,110.1963 153.8594,110.1963 154.1026,110.0793 154.1026,110.0793 154.3604,109.9997 154.3604,109.9997 154.6273,109.9595 154.6273,109.9595 154.8971,109.9595 154.8971,109.9595 155.1640,109.9997 155.1640,109.9997 155.4218,110.0793 155.6650,110.1963 155.8879,110.3484 156.0858,110.5319 156.2540,110.7429 156.3889,110.9766 156.3889,110.9766 156.4875,111.2278 156.4875,111.2278 156.5476,111.4909 156.5677,111.7600 156.5677,111.7600 156.5476,112.0291 156.4875,112.2922 156.4875,112.2922 156.3889,112.5434 156.2540,112.7771 156.1914,112.8556 156.0858,112.9881 155.9756,113.0903 155.8879,113.1716 155.6650,113.3237 155.4218,113.4407 155.1640,113.5203 155.1640,113.5203 155.1640,113.5203 154.8971,113.5605 154.8971,113.5605 154.8971,113.5605 154.8971,113.5605 154.6273,113.5605 154.6273,113.5605 154.6273,113.5605 154.3604,113.5203 154.3604,113.5203 154.3604,113.5203 154.1026,113.4407 153.8594,113.3237 153.7727,113.2645 153.7031,113.2170 153.6366,113.1955 153.6332,113.1955 152.1092,113.1955 152.1092,113.1955 151.8861,113.1602 151.6712,113.0903 151.4698,112.9877 151.2870,112.8549 151.2870,112.8549 151.2833,112.8518 151.2825,112.8528 151.2265,112.8222 151.1568,112.8271 151.1031,112.8660 151.0058,112.9881 150.8956,113.0903 150.8079,113.1716 150.5850,113.3237 150.3418,113.4407 150.0840,113.5203 150.0840,113.5203 150.0840,113.5203 150.0459,113.5260 149.9690,113.5376 149.9056,113.5671 149.8998,113.5725 148.2371,115.2352 148.2371,115.2352 148.0774,115.3949 147.8946,115.5277 147.7287,115.6122 147.6932,115.6303 147.6932,115.6303 147.6932,115.6303 147.4783,115.7002 147.2552,115.7355 147.2552,115.7355 141.9492,115.7355 141.9492,115.7355 141.7261,115.7002 141.5112,115.6303 141.3098,115.5277 141.1270,115.3949 139.3046,113.5725 139.2433,113.5391 139.2355,113.5376 139.1204,113.5203 138.8626,113.4407 138.6194,113.3237 138.3965,113.1716 138.1986,112.9881 138.0304,112.7771 137.8955,112.5434 137.7969,112.2922 137.7368,112.0291 137.7167,111.7600 137.7368,111.4909 137.7969,111.2278 137.8955,110.9766 138.0304,110.7429 138.1986,110.5319 138.1986,110.5319 138.1986,110.5319 138.3965,110.3484 138.4012,110.3452 138.6194,110.1963 138.6194,110.1963 138.6194,110.1963 138.6194,110.1963 138.8626,110.0793 138.8626,110.0793 139.1204,109.9997 139.1204,109.9997 139.3873,109.9595 139.3873,109.9595 139.6571,109.9595 139.6571,109.9595 139.9240,109.9997 139.9240,109.9997 140.1818,110.0793 140.4250,110.1963 140.6479,110.3484 140.8458,110.5319 141.0140,110.7429 141.1489,110.9766 141.1489,110.9766 141.2475,111.2278 141.2475,111.2278 141.3068,111.4877 141.3401,111.5477 142.6205,112.8282 142.6818,112.8617 142.7082,112.8645 142.9461,112.8645 143.0131,112.8448 143.0589,112.7920 143.0688,112.7229 143.0535,112.6785 142.9755,112.5434 142.8769,112.2922 142.8176,112.0323 142.7843,111.9722 141.1573,110.3452 141.0245,110.1624 141.0208,110.1552 140.9219,109.9610 140.8697,109.8005 140.8520,109.7461 140.8231,109.5637 140.8167,109.5230 140.8167,109.1311 140.7970,109.0641 140.7896,109.0538 140.7604,109.0171 140.7604,109.0171 140.7604,109.0171 140.6255,108.7834 140.5269,108.5322 140.4668,108.2691 140.4467,108.0000 140.4467,108.0000 139.0577,108.0000 139.0577,108.0000 139.0376,108.2691 138.9775,108.5322 138.9775,108.5322 138.8789,108.7834 138.7440,109.0171 138.6877,109.0877 138.5758,109.2281 138.3890,109.4014 138.3779,109.4116 138.1550,109.5637 137.9118,109.6807 137.6540,109.7603 137.6540,109.7603 137.6540,109.7603 137.6178,109.7657 137.5390,109.7776 137.4756,109.8071 137.4698,109.8125 137.1303,110.1520 137.1302,110.1521 137.1271,110.1552 137.1271,110.1552 136.9674,110.3149 136.8095,110.4297 136.7970,110.4387 136.7846,110.4477 136.5832,110.5503 136.5832,110.5503 136.5832,110.5503 136.3683,110.6202 136.1452,110.6555 136.1452,110.6555 135.9141,110.6555 135.9141,110.6555 126.7092,110.6555 126.7092,110.6555 126.4861,110.6202 126.2712,110.5503 126.0698,110.4477 125.8870,110.3149 125.6573,110.0852 125.5244,109.9024 125.4219,109.7010 125.3520,109.4861 125.3167,109.2630 125.3167,109.0370 125.3167,107.8011 125.2970,107.7341 125.2896,107.7238 125.2604,107.6871 125.2604,107.6871 125.2604,107.6871 125.1255,107.4534 125.0269,107.2022 124.9668,106.9391 124.9467,106.6700 124.9528,106.5884 124.9668,106.4009 124.9691,106.3911 125.0269,106.1378 125.1255,105.8866 125.2604,105.6529 125.2896,105.6162 125.3161,105.5515 125.3167,105.5389 125.3167,102.6911 125.2970,102.6241 125.2896,102.6138 125.2604,102.5771 125.2604,102.5771 125.2604,102.5771 125.1255,102.3434 125.0269,102.0922 124.9668,101.8291 124.9591,101.7260 124.9467,101.5600 124.9467,101.5600 124.9668,101.2909 124.9668,101.2909 125.0269,101.0278 125.1255,100.7766 125.2604,100.5429 125.4286,100.3319 125.4286,100.3319 125.4286,100.3319 125.6265,100.1484 125.6610,100.1248 125.8494,99.9963 125.8494,99.9963 125.8494,99.9963 125.8494,99.9963 126.0926,99.8793 126.0926,99.8793 126.3504,99.7997 126.3504,99.7997 126.6173,99.7595 126.6173,99.7595 126.8871,99.7595 126.8871,99.7595 127.1540,99.7997 127.1540,99.7997 127.4118,99.8793 127.6550,99.9963 127.8779,100.1484 128.0758,100.3319 128.2440,100.5429 128.3789,100.7766 128.3789,100.7766 128.4775,101.0278 128.4775,101.0278 128.5376,101.2909 128.5577,101.5600 128.5577,101.5600 128.5376,101.8291 128.4912,102.0322 128.4775,102.0922 128.3789,102.3434 128.2461,102.5734 128.2440,102.5771 128.2440,102.5771 128.2148,102.6138 128.1883,102.6785 128.1877,102.6911 128.1877,105.5389 128.2074,105.6059 128.2148,105.6162 128.2440,105.6529 128.3789,105.8866 128.3789,105.8866 128.4775,106.1378 128.4775,106.1378 128.5376,106.4009 128.5577,106.6700 128.5577,106.6700 128.5376,106.9391 128.4775,107.2022 128.4775,107.2022 128.3789,107.4534 128.3789,107.4534 128.2952,107.5985 128.2787,107.6664 128.3015,107.7324 128.3565,107.7756 128.4026,107.7845 135.3557,107.7845 135.4227,107.7648 135.4685,107.7120 135.4766,107.6881 135.5152,107.5188 135.5269,107.4678 135.6255,107.2166 135.7604,106.9829 135.9286,106.7719 135.9286,106.7719 135.9286,106.7719 136.1265,106.5884 136.3494,106.4363 136.3494,106.4363 136.3494,106.4363 136.3494,106.4363 136.5926,106.3193 136.5926,106.3193 136.8504,106.2397 136.8504,106.2397 137.1173,106.1995 137.1173,106.1995 137.3871,106.1995 137.3871,106.1995 137.6540,106.2397 137.6540,106.2397 137.9118,106.3193 138.1550,106.4363 138.3779,106.5884 138.5758,106.7719 138.7440,106.9829 138.8789,107.2166 138.8789,107.2166 138.9775,107.4678 138.9775,107.4678 139.0376,107.7309 139.0577,108.0000 140.4467,108.0000 140.4513,107.9380 140.4668,107.7309 140.4687,107.7227 140.5269,107.4678 140.6255,107.2166 140.7604,106.9829 140.9286,106.7719 140.9286,106.7719 140.9286,106.7719 141.1265,106.5884 141.3494,106.4363 141.3494,106.4363 141.3494,106.4363 141.3494,106.4363 141.5926,106.3193 141.5926,106.3193 141.8504,106.2397 141.8504,106.2397 141.9654,106.2224 142.0288,106.1929 142.0346,106.1874 142.2804,105.9417 142.3139,105.8804 142.3167,105.8540 142.3167,102.5681 142.3167,102.5681 142.3167,102.3370 142.3361,102.2144 142.3520,102.1139 142.4219,101.8990 142.4219,101.8990 142.4219,101.8990 142.4880,101.7691 142.5245,101.6976 142.5373,101.6800 142.6573,101.5148 142.6721,101.5000 137.8077,101.5000 137.8077,101.5000 137.7876,101.7691 137.7275,102.0322 137.7275,102.0322 137.7040,102.0922 137.6289,102.2834 137.4940,102.5171 137.3899,102.6477 137.3258,102.7281 137.2156,102.8303 137.1279,102.9116 136.9050,103.0637 136.6618,103.1807 136.4040,103.2603 136.4040,103.2603 136.4040,103.2603 136.1371,103.3005 136.1371,103.3005 136.1371,103.3005 136.1371,103.3005 135.8673,103.3005 135.8673,103.3005 135.8673,103.3005 135.6004,103.2603 135.6004,103.2603 135.6004,103.2603 135.3426,103.1807 135.0994,103.0637 134.9805,102.9826 134.9431,102.9570 134.8766,102.9355 134.8732,102.9355 134.3892,102.9355 134.3892,102.9355 134.1661,102.9002 133.9512,102.8303 133.7498,102.7278 133.5670,102.5949 130.5741,99.6020 130.5741,99.6020 130.5670,99.5949 130.5670,99.5949 130.4073,99.4352 130.2745,99.2524 130.1719,99.0510 130.1381,98.9470 130.1020,98.8361 130.0667,98.6130 130.0667,98.3870 130.0667,98.3826 130.0667,98.3826 130.0667,95.9795 130.0470,95.9125 129.9942,95.8667 129.9427,95.8555 129.5382,95.8555 129.4711,95.8752 129.4505,95.8918 128.5701,96.7722 128.5368,96.8323 128.4775,97.0922 128.4775,97.0922 128.4775,97.0922 128.3789,97.3434 128.2440,97.5771 128.1236,97.7281 128.0758,97.7881 127.8946,97.9562 127.8779,97.9716 127.6550,98.1237 127.6550,98.1237 127.6550,98.1237 127.6432,98.1293 127.4118,98.2407 127.1540,98.3203 127.1540,98.3203 127.1540,98.3203 126.8871,98.3605 126.8871,98.3605 126.8871,98.3605 126.8871,98.3605 126.6173,98.3605 126.6173,98.3605 126.6173,98.3605 126.3504,98.3203 126.3504,98.3203 126.3504,98.3203 126.0926,98.2407 125.9004,98.1482 125.8494,98.1237 125.8494,98.1237 125.8494,98.1237 125.6265,97.9716 125.4286,97.7881 125.2604,97.5771 125.1255,97.3434 125.0269,97.0922 124.9668,96.8291 124.9601,96.7394 124.9467,96.5600 124.9467,96.5600 124.9668,96.2909 124.9698,96.2780 125.0269,96.0278 125.1255,95.7766 125.2604,95.5429 125.4286,95.3319 125.4286,95.3319 125.4286,95.3319 125.6265,95.1484 125.6851,95.1084 125.8494,94.9963 125.8494,94.9963 125.8494,94.9963 125.8494,94.9963 126.0926,94.8793 126.0926,94.8793 126.3504,94.7997 126.3504,94.7997 126.4654,94.7824 126.5288,94.7529 126.5346,94.7474 127.9570,93.3251 127.9570,93.3251 128.1398,93.1923 128.1405,93.1919 128.3412,93.0897 128.3412,93.0897 128.5561,93.0198 128.6676,93.0022 128.7792,92.9845 128.7792,92.9845 130.3732,92.9845 130.4403,92.9648 130.4431,92.9630 130.5994,92.8563 130.5994,92.8563 130.8426,92.7393 130.8426,92.7393 131.1004,92.6597 131.1004,92.6597 131.3673,92.6195 131.3673,92.6195 131.6371,92.6195 131.6371,92.6195 131.9040,92.6597 131.9040,92.6597 132.1618,92.7393 132.4050,92.8563 132.6279,93.0084 132.8258,93.1919 132.9940,93.4029 133.1289,93.6366 133.1289,93.6366 133.2275,93.8878 133.2275,93.8878 133.2876,94.1509 133.3077,94.4200 133.3077,94.4200 133.2876,94.6891 133.2275,94.9522 133.2275,94.9522 133.1289,95.2034 133.0049,95.4183 132.9940,95.4371 132.9940,95.4371 132.9648,95.4738 132.9383,95.5385 132.9377,95.5511 132.9377,97.8540 132.9574,97.9211 132.9740,97.9417 134.9492,99.9169 135.0106,99.9504 135.0803,99.9454 135.0989,99.9366 135.0994,99.9363 135.3426,99.8193 135.3426,99.8193 135.6004,99.7397 135.6004,99.7397 135.8673,99.6995 135.8673,99.6995 136.1371,99.6995 136.1371,99.6995 136.4040,99.7397 136.4040,99.7397 136.6618,99.8193 136.9050,99.9363 137.1279,100.0884 137.3258,100.2719 137.4940,100.4829 137.6289,100.7166 137.6289,100.7166 137.7275,100.9678 137.7275,100.9678 137.7876,101.2309 137.8077,101.5000 142.6721,101.5000 142.8170,101.3551 142.8170,101.3551 142.8201,101.3520 142.8202,101.3519 143.6670,100.5051 143.6670,100.5051 143.6670,100.5051 143.8498,100.3722 144.0512,100.2697 144.0512,100.2697 144.2661,100.1998 144.3776,100.1822 144.4892,100.1645 144.4892,100.1645 145.9172,100.1645 145.9843,100.1448 146.0300,100.0920 146.0400,100.0229 146.0109,99.9593 146.0049,99.9528 145.6470,99.5949 144.3846,98.3325 144.3233,98.2991 144.3155,98.2976 144.2004,98.2803 143.9426,98.2007 143.6994,98.0837 143.4765,97.9316 143.2786,97.7481 143.1104,97.5371 142.9755,97.3034 142.8769,97.0522 142.8168,96.7891 142.7996,96.5600 142.7967,96.5200 142.7967,96.5200 142.8168,96.2509 142.8677,96.0278 142.8769,95.9878 142.9755,95.7366 143.0535,95.6015 143.0699,95.5336 143.0471,95.4676 142.9922,95.4244 142.9461,95.4155 141.8812,95.4155 141.8141,95.4352 141.8113,95.4370 141.7147,95.5029 141.6550,95.5437 141.4118,95.6607 141.1540,95.7403 141.1540,95.7403 141.1540,95.7403 140.8871,95.7805 140.8871,95.7805 140.8871,95.7805 140.8871,95.7805 140.6173,95.7805 140.6173,95.7805 140.5914,95.7766 140.3504,95.7403 140.3504,95.7403 140.3504,95.7403 140.0926,95.6607 139.8774,95.5571 139.8494,95.5437 139.8494,95.5437 139.8494,95.5437 139.7603,95.4829 139.6931,95.4370 139.6266,95.4155 139.6232,95.4155 137.6699,95.4155 137.6028,95.4352 137.5571,95.4880 137.5471,95.5571 137.5625,95.6015 137.6289,95.7166 137.7275,95.9678 137.7275,95.9678 137.7876,96.2309 137.8077,96.5000 137.8077,96.5000 137.7876,96.7691 137.7275,97.0322 137.7275,97.0322 137.7040,97.0922 137.6289,97.2834 137.4940,97.5171 137.3972,97.6385 137.3258,97.7281 137.1390,97.9014 137.1279,97.9116 136.9050,98.0637 136.6618,98.1807 136.4040,98.2603 136.4040,98.2603 136.4040,98.2603 136.1371,98.3005 136.1371,98.3005 136.1371,98.3005 136.1371,98.3005 135.8673,98.3005 135.8673,98.3005 135.8673,98.3005 135.6004,98.2603 135.6004,98.2603 135.6004,98.2603 135.3426,98.1807 135.0994,98.0637 134.8765,97.9116 134.6786,97.7281 134.5104,97.5171 134.3755,97.2834 134.2769,97.0322 134.2168,96.7691 134.2041,96.5989 134.1967,96.5000 134.1967,96.5000 134.2168,96.2309 134.2632,96.0278 134.2769,95.9678 134.3755,95.7166 134.5104,95.4829 134.5226,95.4676 134.5396,95.4462 134.5661,95.3815 134.5667,95.3689 134.5667,94.8870 134.5743,94.8393 134.5743,94.8393 134.6020,94.6639 134.6020,94.6639 134.6704,94.4536 134.6714,94.4498 134.6719,94.4490 134.7745,94.2476 134.9073,94.0648 135.0670,93.9051 136.0870,92.8851 136.2698,92.7522 136.2953,92.7393 136.4712,92.6497 136.4712,92.6497 136.6861,92.5798 136.7976,92.5622 136.9092,92.5445 136.9092,92.5445 139.6232,92.5445 139.6903,92.5248 139.6931,92.5230 139.8494,92.4163 139.8494,92.4163 140.0926,92.2993 140.0926,92.2993 140.3504,92.2197 140.3504,92.2197 140.4491,92.2049 140.5124,92.1754 140.5498,92.1164 140.5493,92.0465 140.5111,91.9880 140.4474,91.9594 140.4305,91.9582 Z"
         id="path182" />
    </g>
    <g
       style="fill:#000000; fill-opacity:1.0000; stroke:none;"
       id="g183">
      <circle
         cx="161.1122"
         cy="123.1900"
         r="1.1000"
         id="circle182" />
    </g>
    <g
       style="fill:#000000; fill-opacity:1.0000; stroke:none;"
       id="g184">
      <circle
         cx="134.7073"
         cy="116.2500"
         r="0.4000"
         id="circle183" />
    </g>
    <g
       style="fill:#000000; fill-opacity:1.0000; stroke:none;"
       id="g185">
      <circle
         cx="132.2073"
         cy="116.2500"
         r="0.4000"
         id="circle184" />
    </g>
    <g
       style="fill:#000000; fill-opacity:1.0000; stroke:none;"
       id="g186">
      <circle
         cx="144.6022"
         cy="121.9200"
         r="0.4000"
         id="circle185" />
    </g>
    <g
       style="fill:#000000; fill-opacity:1.0000; stroke:none;"
       id="g187">
      <circle
         cx="144.6022"
         cy="111.7600"
         r="0.4000"
         id="circle186" />
    </g>
    <g
       style="fill:#000000; fill-opacity:1.0000; stroke:none;"
       id="g188">
      <circle
         cx="159.8422"
         cy="114.3000"
         r="0.5000"
         id="circle187" />
    </g>
    <g
       style="fill:#000000; fill-opacity:1.0000; stroke:none;"
       id="g189">
      <circle
         cx="159.8422"
         cy="116.8400"
         r="0.5000"
         id="circle188" />
    </g>
    <g
       style="fill:#000000; fill-opacity:1.0000; stroke:none;"
       id="g190">
      <circle
         cx="147.5022"
         cy="101.6000"
         r="0.4000"
         id="circle189" />
    </g>
    <g
       style="fill:#000000; fill-opacity:1.0000; stroke:none;"
       id="g191">
      <circle
         cx="147.5022"
         cy="104.1400"
         r="0.4000"
         id="circle190" />
    </g>
    <g
       style="fill:#000000; fill-opacity:1.0000; stroke:none;"
       id="g192">
      <circle
         cx="147.5022"
         cy="106.6800"
         r="0.4000"
         id="circle191" />
    </g>
    <g
       style="fill:#000000; fill-opacity:1.0000; stroke:none;"
       id="g193">
      <circle
         cx="126.7522"
         cy="101.5600"
         r="0.4000"
         id="circle192" />
    </g>
    <g
       style="fill:#000000; fill-opacity:1.0000; stroke:none;"
       id="g194">
      <circle
         cx="126.7522"
         cy="96.5600"
         r="0.4000"
         id="circle193" />
    </g>
    <g
       style="fill:#000000; fill-opacity:1.0000; stroke:none;"
       id="g195">
      <circle
         cx="159.8422"
         cy="104.1400"
         r="0.5000"
         id="circle194" />
    </g>
    <g
       style="fill:#000000; fill-opacity:1.0000; stroke:none;"
       id="g196">
      <circle
         cx="159.8422"
         cy="101.6000"
         r="0.5000"
         id="circle195" />
    </g>
    <g
       style="fill:#000000; fill-opacity:1.0000; stroke:none;"
       id="g197">
      <circle
         cx="154.7622"
         cy="106.6800"
         r="0.4000"
         id="circle196" />
    </g>
    <g
       style="fill:#000000; fill-opacity:1.0000; stroke:none;"
       id="g198">
      <circle
         cx="154.7622"
         cy="101.6800"
         r="0.4000"
         id="circle197" />
    </g>
    <g
       style="fill:#000000; fill-opacity:1.0000; stroke:none;"
       id="g199">
      <circle
         cx="154.7622"
         cy="121.9200"
         r="0.4000"
         id="circle198" />
    </g>
    <g
       style="fill:#000000; fill-opacity:1.0000; stroke:none;"
       id="g200">
      <circle
         cx="154.7622"
         cy="111.7600"
         r="0.4000"
         id="circle199" />
    </g>
    <g
       style="fill:#000000; fill-opacity:1.0000; stroke:none;"
       id="g201">
      <circle
         cx="139.5222"
         cy="111.7600"
         r="0.4000"
         id="circle200" />
    </g>
    <g
       style="fill:#000000; fill-opacity:1.0000; stroke:none;"
       id="g202">
      <circle
         cx="139.5222"
         cy="121.9200"
         r="0.4000"
         id="circle201" />
    </g>
    <g
       style="fill:#000000; fill-opacity:1.0000; stroke:none;"
       id="g203">
      <circle
         cx="144.6022"
         cy="96.5200"
         r="0.4000"
         id="circle202" />
    </g>
    <g
       style="fill:#000000; fill-opacity:1.0000; stroke:none;"
       id="g204">
      <circle
         cx="154.7622"
         cy="96.5200"
         r="0.4000"
         id="circle203" />
    </g>
    <g
       style="fill:#000000; fill-opacity:1.0000; stroke:none;"
       id="g205">
      <circle
         cx="126.7522"
         cy="106.6700"
         r="0.4000"
         id="circle204" />
    </g>
    <g
       style="fill:#000000; fill-opacity:1.0000; stroke:none;"
       id="g206">
      <circle
         cx="126.7522"
         cy="116.8300"
         r="0.4000"
         id="circle205" />
    </g>
    <g
       style="fill:#000000; fill-opacity:1.0000; stroke:none;"
       id="g207">
      <circle
         cx="140.7522"
         cy="93.9800"
         r="0.4000"
         id="circle206" />
    </g>
    <g
       style="fill:#000000; fill-opacity:1.0000; stroke:none;"
       id="g208">
      <circle
         cx="140.7522"
         cy="104.1400"
         r="0.4000"
         id="circle207" />
    </g>
    <g
       style="fill:#000000; fill-opacity:1.0000; stroke:none;"
       id="g209">
      <circle
         cx="161.1122"
         cy="95.2500"
         r="1.1000"
         id="circle208" />
    </g>
    <g
       style="fill:#000000; fill-opacity:1.0000; stroke:none;"
       id="g210">
      <circle
         cx="131.5022"
         cy="94.4200"
         r="0.4000"
         id="circle209" />
    </g>
    <g
       style="fill:#000000; fill-opacity:1.0000; stroke:none;"
       id="g211">
      <circle
         cx="131.5022"
         cy="104.5800"
         r="0.4000"
         id="circle210" />
    </g>
    <g
       style="fill:#000000; fill-opacity:1.0000; stroke:none;"
       id="g212">
      <circle
         cx="137.2522"
         cy="108.0000"
         r="0.4000"
         id="circle211" />
    </g>
    <g
       style="fill:#000000; fill-opacity:1.0000; stroke:none;"
       id="g213">
      <circle
         cx="142.2522"
         cy="108.0000"
         r="0.4000"
         id="circle212" />
    </g>
    <g
       style="fill:#000000; fill-opacity:1.0000; stroke:none;"
       id="g214">
      <circle
         cx="136.0022"
         cy="101.5000"
         r="0.4000"
         id="circle213" />
    </g>
    <g
       style="fill:#000000; fill-opacity:1.0000; stroke:none;"
       id="g215">
      <circle
         cx="136.0022"
         cy="96.5000"
         r="0.4000"
         id="circle214" />
    </g>
    <g
       style="fill:#000000; fill-opacity:1.0000; stroke:none;"
       id="g216">
      <circle
         cx="149.6822"
         cy="111.7600"
         r="0.4000"
         id="circle215" />
    </g>
    <g
       style="fill:#000000; fill-opacity:1.0000; stroke:none;"
       id="g217">
      <circle
         cx="149.6822"
         cy="121.9200"
         r="0.4000"
         id="circle216" />
    </g>
  </g>
  <metadata
     id="metadata219">
    <rdf:RDF>
      <cc:Work
         rdf:about="">
        <dc:title>SVG Image created as oscill_800Hz-B_Cu.svg date 2024/11/15 21:10:55 </dc:title>
      </cc:Work>
    </rdf:RDF>
  </metadata>
</svg>
